<svg id="delete" xmlns="http://www.w3.org/2000/svg" width="23" height="23" viewBox="0 0 23 23">
  <path id="Path_1" data-name="Path 1" d="M0,0H23V23H0Z" fill="none" fill-rule="evenodd"/>
  <path id="Path_2" data-name="Path 2" d="M22.281,4.548a.71.71,0,1,1,0,1.419H20.125V18.742A4.286,4.286,0,0,1,15.813,23H7.188a4.286,4.286,0,0,1-4.312-4.258V5.968H.719a.71.71,0,1,1,0-1.419ZM9.344,10.226a.714.714,0,0,0-.719.71V15.9a.719.719,0,0,0,1.438,0V10.935A.714.714,0,0,0,9.344,10.226Zm4.313,0a.714.714,0,0,0-.719.71V15.9a.719.719,0,0,0,1.438,0V10.935A.714.714,0,0,0,13.656,10.226ZM16.891,1a1.065,1.065,0,1,1,0,2.129H6.109A1.065,1.065,0,1,1,6.109,1Z" transform="translate(0 0)" fill="#fff" fill-rule="evenodd"/>
</svg>
