<svg xmlns="http://www.w3.org/2000/svg" width="22.502" height="23.402" viewBox="0 0 22.502 23.402">
  <g id="link" transform="translate(3.251 -0.749)">
    <path id="Path_5" data-name="Path 5" d="M15.2,3.355a4.076,4.076,0,0,1,5.757-.3,4.115,4.115,0,0,1-.3,5.779l-2.424,2.433M10.046,14a4.115,4.115,0,0,1,.3-5.779L12.5,6.062" transform="translate(-4)" fill="none" stroke="#eaeaea" stroke-linecap="round" stroke-width="2.5"/>
    <path id="Path_6" data-name="Path 6" d="M13.954,10a4.115,4.115,0,0,1-.3,5.779l-2.424,2.433L8.8,20.645a4.076,4.076,0,0,1-5.757.3,4.115,4.115,0,0,1,.3-5.779l2.424-2.433" transform="translate(-4 0.9)" fill="none" stroke="#eaeaea" stroke-linecap="round" stroke-width="2.5"/>
  </g>
</svg>
