<svg xmlns="http://www.w3.org/2000/svg" viewBox="0 0 132.09 134.34"><defs><style>.cls-1{fill:#190f0b;}.cls-2{fill:#061c1f;}.cls-3{fill:#026699;}.cls-4{fill:#016699;}</style></defs><g id="Layer_2" data-name="Layer 2"><g id="Layer_3" data-name="Layer 3"><path class="cls-1" d="M59.61.33s-39-.74-45.1,0c-7.64.94-13.28,8-14.13,14.3s0,39.83,0,39.83v61.79c0,3.57.55,8.45,6.49,13.27s10.87,4.82,10.87,4.82H59.61V102.63l4.77-2.21-50.21-41L14,40.16Z"/><path class="cls-2" d="M72.47,134s39,.75,45.11,0c7.64-.94,13.28-8,14.13-14.3s0-39.83,0-39.83V18.1c0-3.58-.56-8.46-6.49-13.28S114.35,0,114.35,0H72.47V31.71l-4.76,2.21,50.21,41,.17,19.23Z"/><polygon class="cls-3" points="19.21 45.27 19.21 56.5 65.17 93.78 65.17 79.14 30.62 50.54 65.17 20.59 65.17 7.14 19.21 45.27"/><polygon class="cls-4" points="112.75 87.91 112.75 76.68 66.79 39.4 66.79 54.04 101.34 82.64 66.79 112.59 66.79 126.04 112.75 87.91"/></g></g></svg>